<?xml version="1.0" encoding="utf-8"?>
<!-- Generator: Adobe Illustrator 21.0.2, SVG Export Plug-In . SVG Version: 6.00 Build 0)  -->
<svg version="1.1" id="Layer_1" xmlns="http://www.w3.org/2000/svg" xmlns:xlink="http://www.w3.org/1999/xlink" x="0px" y="0px"
	 viewBox="0 0 1341.8 452.4" width="1341" height="452" style="enable-background:new 0 0 1341.8 452.4;" xml:space="preserve">
<style type="text/css">
	.st0{fill:#68AFCE;}
	.st1{opacity:0.65;}
	.st2{fill:#0B4772;}
	.st3{fill:#06497D;}
	.st4{fill:#FFFFFF;}
	.st5{fill:#63BDEA;}
	.st6{opacity:0.2;}
	.st7{fill:#2E95D1;}
	.st8{fill:#021E4C;}
	.st9{opacity:0.1;}
	.st10{fill:#658D1B;}
	.st11{fill:#A2DCED;}
	.st12{fill:#003865;}
	.st13{opacity:0.4;fill:#0979AE;enable-background:new    ;}
	.st14{fill:#004272;}
	.st15{fill:#4AA7DE;}
	.st16{opacity:0.7;fill:#006BA6;enable-background:new    ;}
	.st17{fill:#7CCAF1;}
	.st18{fill:#C4E8FB;}
	.st19{opacity:0.9;}
	.st20{fill:#C2E6F9;}
	.st21{fill:none;}
	.st22{opacity:0.6;fill:#006BA6;enable-background:new    ;}
	.st23{fill:#97D3F1;}
	.st24{fill:#002A4C;}
	.st25{fill:#CFEAF9;}
	.st26{fill:none;stroke:#0379AE;stroke-width:4.6207;}
	.st27{fill:none;stroke:#0B4772;stroke-width:4.6207;}
	.st28{fill:none;stroke:#282D33;stroke-width:4.6207;}
	.st29{fill:none;stroke:#282D33;stroke-width:4.1655;}
	.st30{fill:none;stroke:#0B4772;stroke-width:4.1655;}
	.st31{fill:#2A2F34;}
	.st32{opacity:0.2;fill:#2E95D1;enable-background:new    ;}
	.st33{fill:#4C6A14;}
	.st34{fill:#136FB7;}
</style>
<g id="bg_color">
</g>
<g id="map">
</g>
<g id="illustration">
	<g>
		<path class="st0" d="M1329.5,379.4h-41.8c3-1.1,5.2-4.2,5.2-7.9v-49.6c0-4.7-3.4-8.4-7.5-8.4h-128.3H964.5v5.6h4.2
			c1.4,0,2.5,1.3,2.5,2.8v1.9h-0.1v0.6h0.1v2.4h-0.1v1.2h0.1v4.8h-0.1v2h0.1v2.9h-0.1v0.6h0.1v2.4h-0.1v1.2h0.1v5.6h-0.1v1.2h0.1
			v2.9h-0.1v0.6h0.1v5.7h-0.1v0.6h0.1v3.6h-0.1v1.2h0.1v5.5h-0.1v2h0.1v0.7c0,1.5-1.1,2.8-2.5,2.8h-4.2v5.1h-70.3v8.2h6.9
			c2.3,0,4.1,1.9,4.1,4.1v43.8c0,2.3-1.8,4.1-4.1,4.1h-6.9v8.2h225.9h209.4c6.8,0,12.3-5.5,12.3-12.3v-43.8
			C1341.8,385,1336.3,379.4,1329.5,379.4z"/>
		<path class="st0" d="M991.7,312.7h125h134.8v-4.9h-4.1c-1.3,0-2.4-1.1-2.4-2.5v-26.1c0-1.3,1.1-2.5,2.4-2.5h4.1v-4.8h-134.8h-125
			c-4.1,0-7.4,3.3-7.4,7.4v26.1C984.4,309.4,987.7,312.7,991.7,312.7z"/>
	</g>
	<g class="st1">
		<g>
			<path class="st2" d="M894.2,439.7h6.9c2.3,0,4.1-1.8,4.1-4.1v-43.8c0-2.3-1.8-4.1-4.1-4.1h-6.9v-8.2h435.3
				c6.8,0,12.3,5.5,12.3,12.3v43.8c0,6.8-5.5,12.3-12.3,12.3H894.2V439.7z"/>
			<path class="st3" d="M894.2,439.7h6.9c2.3,0,4.1-1.8,4.1-4.1v-43.8c0-2.3-1.8-4.1-4.1-4.1h-6.9v-8.2h225.9v68.4H894.2
				L894.2,439.7L894.2,439.7z"/>
			<path class="st4" d="M905.1,435.6v-43.8c0-2.3-1.8-4.1-4.1-4.1h428.5c2.3,0,4.1,1.9,4.1,4.1v43.8c0,2.3-1.8,4.1-4.1,4.1H901
				C903.3,439.7,905.1,437.8,905.1,435.6z"/>
			<path class="st5" d="M905.1,435.6v-43.8c0-2.3-1.8-4.1-4.1-4.1h227.2c2.3,0,4.1,1.9,4.1,4.1v43.8c0,2.3-1.8,4.1-4.1,4.1H901
				C903.3,439.7,905.1,437.8,905.1,435.6z"/>
			<g class="st6">
				<rect x="1131.8" y="391.5" class="st7" width="199.1" height="2"/>
				<rect x="1135.3" y="395.9" class="st7" width="195.5" height="2"/>
				<rect x="1131.8" y="400.2" class="st7" width="98.3" height="2"/>
				<rect x="1214.9" y="404.6" class="st7" width="116" height="2"/>
				<rect x="1131.8" y="408.9" class="st7" width="152.4" height="2"/>
				<rect x="1139.3" y="413.2" class="st7" width="191.5" height="2"/>
				<rect x="1140" y="417.6" class="st7" width="158.5" height="2"/>
			</g>
			<g class="st6">
				<rect x="1135.3" y="426.5" class="st7" width="195.5" height="2"/>
				<rect x="1170.1" y="430.9" class="st7" width="141.4" height="2"/>
				<rect x="1153.6" y="435.2" class="st7" width="177.3" height="2"/>
			</g>
		</g>
		<g>
			<path class="st3" d="M964.4,374.3h4.2c1.4,0,2.5-1.3,2.5-2.8v-49.6c0-1.5-1.1-2.8-2.5-2.8h-4.2v-5.6h320.9c4.2,0,7.5,3.8,7.5,8.4
				v49.6c0,4.7-3.4,8.4-7.5,8.4H964.4L964.4,374.3L964.4,374.3z"/>
			<path class="st8" d="M964.4,374.3h4.2c1.4,0,2.5-1.3,2.5-2.8v-49.6c0-1.5-1.1-2.8-2.5-2.8h-4.2v-5.6H1157v66.4H964.4L964.4,374.3
				L964.4,374.3z"/>
			<path class="st4" d="M971.2,371.5v-49.6c0-1.5-1.1-2.8-2.5-2.8h316.7c1.4,0,2.5,1.3,2.5,2.8v49.6c0,1.5-1.1,2.8-2.5,2.8H968.7
				C970,374.3,971.2,373,971.2,371.5z"/>
			<path class="st5" d="M971.2,371.5v-49.6c0-1.5-1.1-2.8-2.5-2.8h193.4c1.4,0,2.5,1.3,2.5,2.8v49.6c0,1.5-1.1,2.8-2.5,2.8H968.7
				C970,374.3,971.2,373,971.2,371.5z"/>
			<g class="st9">
				<rect x="971" y="318.9" class="st3" width="314.8" height="2"/>
				<rect x="971" y="368.8" class="st3" width="314.8" height="2"/>
				<rect x="971" y="323.8" class="st3" width="314.8" height="0.6"/>
				<rect x="971" y="337.7" class="st3" width="314.8" height="0.6"/>
				<rect x="971" y="351.6" class="st3" width="314.8" height="0.6"/>
				<rect x="971" y="357.9" class="st3" width="314.8" height="0.6"/>
				<rect x="971" y="326.8" class="st3" width="314.8" height="1.2"/>
				<rect x="971" y="332.8" class="st3" width="314.8" height="2"/>
				<rect x="971" y="340.7" class="st3" width="314.8" height="1.2"/>
				<rect x="971" y="362" class="st3" width="314.8" height="1.2"/>
				<rect x="971" y="347.5" class="st3" width="314.8" height="1.2"/>
			</g>
			<polygon class="st10" points="1252.5,401.4 1264.7,393.7 1277,401.4 1277,363.1 1264.7,363.1 1252.5,363.1 			"/>
		</g>
		<g>
			<path class="st3" d="M1251.6,307.8h-4.1c-1.3,0-2.4-1.1-2.4-2.5v-26.1c0-1.3,1.1-2.5,2.4-2.5h4.1v-4.8H991.7
				c-4.1,0-7.4,3.3-7.4,7.4v26.1c0,4.1,3.3,7.4,7.4,7.4h259.8L1251.6,307.8L1251.6,307.8z"/>
			<path class="st11" d="M1251.6,307.8h-4.1c-1.3,0-2.4-1.1-2.4-2.5v-26.1c0-1.3,1.1-2.5,2.4-2.5h4.1v-4.8h-134.9v40.9h134.8
				L1251.6,307.8L1251.6,307.8z"/>
			<path class="st5" d="M1245,305.4v-26.1c0-1.3,1.1-2.5,2.4-2.5H991.7c-1.3,0-2.4,1.1-2.4,2.5v26.1c0,1.4,1.1,2.5,2.4,2.5h255.7
				C1246.1,307.8,1245,306.7,1245,305.4z"/>
			<path class="st4" d="M1245,305.4v-26.1c0-1.3,1.1-2.5,2.4-2.5h-135.6c-1.4,0-2.4,1.1-2.4,2.5v26.1c0,1.4,1.1,2.5,2.4,2.5h135.6
				C1246.1,307.8,1245,306.7,1245,305.4z"/>
			<g class="st6">
				<rect x="990.9" y="279.1" class="st3" width="252.1" height="1.9"/>
				<rect x="990.9" y="283.2" class="st3" width="252.1" height="1.9"/>
				<rect x="990.9" y="287.3" class="st3" width="252.1" height="1.9"/>
				<rect x="990.9" y="291.5" class="st3" width="252.1" height="1.9"/>
				<rect x="990.9" y="295.6" class="st3" width="252.1" height="1.9"/>
				<rect x="990.9" y="299.7" class="st3" width="252.1" height="1.9"/>
				<rect x="990.9" y="303.8" class="st3" width="252.1" height="1.9"/>
			</g>
		</g>
	</g>
	<path class="st12" d="M485.2,418.9V21.4c0-11.8,9.3-21.4,20.7-21.4h564.2c11.4,0,20.7,9.6,20.7,21.4v397.5"/>
	<path class="st0" d="M293.4,296.5c44-87,9.1-193.2-78-237.2c-1.1-0.6-2.2-1-3.3-1.6l0.6-1.1c1.1-0.1,2.2-0.3,3.3-0.6
		c7.2-2.4,11.1-10.1,8.7-17.3s-10.1-11.1-17.3-8.7c-7.2,2.4-11.1,10.1-8.7,17.3c0.2,0.7,0.5,1.4,0.9,2l-20.1,39.8
		c-17.9-6.1-36.6-8.2-54.8-6.6c-1.6,0.1-3.1,0.3-4.7,0.5c-1.2,0.1-2.5,0.3-3.7,0.5c-0.6,0.1-1.2,0.2-1.8,0.3
		c-1.6,0.3-3.1,0.5-4.7,0.8c-0.1,0-0.3,0.1-0.4,0.1c-7.2,1.4-14.3,3.4-21.1,6l0,0c0,0,0,0-0.1,0c-0.8,0.3-1.6,0.6-2.4,1
		c-1,0.4-1.9,0.8-2.9,1.2c-0.9,0.4-1.7,0.8-2.6,1.1c-0.9,0.4-1.8,0.8-2.7,1.2c-0.9,0.4-1.7,0.8-2.6,1.2c-1.5,0.7-3,1.5-4.4,2.3
		c-0.9,0.5-1.9,1.1-2.8,1.6c-0.7,0.4-1.4,0.8-2.1,1.2c-1,0.6-1.9,1.2-2.9,1.8c-0.6,0.4-1.1,0.7-1.7,1.1c-2.3,1.5-4.5,3.1-6.7,4.7
		c0,0-0.1,0-0.1,0.1c-1.1,0.8-2.1,1.6-3.2,2.5c-0.4,0.3-0.8,0.6-1.1,0.9c-1.1,0.9-2.1,1.8-3.2,2.7c-0.2,0.1-0.3,0.3-0.5,0.4
		c-3.5,3-6.8,6.2-9.9,9.6c-0.2,0.2-0.5,0.5-0.7,0.7c-3.1,3.4-6.1,7-8.9,10.8c-0.1,0.1-0.2,0.3-0.3,0.4l0,0c-3.1,4.2-6,8.7-8.7,13.3
		c-28,49.1-21.9,108.5,10.6,150.7c0.4,0.6,0.9,1.1,1.3,1.7c1,1.3,2,2.5,3.1,3.8c0.6,0.7,1.2,1.4,1.8,2.1c1,1.1,1.9,2.1,2.9,3.2
		c0.7,0.7,1.4,1.4,2.1,2.1c1,1,2,2,3,2.9c0.7,0.7,1.5,1.4,2.3,2.1c1,0.9,2.1,1.9,3.2,2.8c0.8,0.6,1.5,1.3,2.3,1.9
		c1.2,0.9,2.3,1.8,3.5,2.7c0.8,0.6,1.5,1.1,2.3,1.7c0.7,0.5,1.5,1.1,2.2,1.6L39.6,367c-1.1,0.1-2.2,0.3-3.3,0.6
		c-7.2,2.4-11.1,10.1-8.7,17.3s10.1,11.1,17.3,8.7c7.2-2.4,11.1-10.1,8.7-17.3c-0.2-0.7-0.5-1.4-0.9-2l0.7-1.5
		c0.9,0.5,1.8,1,2.7,1.5c20.8,10.5,42.7,16.5,64.6,18.3v28.3H79.6c-5.4,0-10.2,2.9-12.8,7.2H39.2c-13.6,0-24.7,10.8-25.2,24.3h248.9
		c-0.5-13.5-11.6-24.3-25.2-24.3h-27.6c-2.6-4.3-7.4-7.2-12.8-7.2h-41.1v-28.8C213.3,385.4,265.7,351.3,293.4,296.5z M63.4,353.4
		l7.9-15.6c45.3,24.5,98.7,20.6,139.3-5.9c0,0,0,0,0.1,0c7.3-4.8,14.2-10.3,20.6-16.5c0.1-0.1,0.1-0.1,0.2-0.2l0,0
		c8.8-8.6,16.5-18.5,22.9-29.7c1.1-2,2.2-4,3.3-6.1c0.3-0.6,0.6-1.2,0.9-1.8c0.7-1.4,1.4-2.9,2.1-4.4c0.3-0.8,0.6-1.5,1-2.3
		c0.6-1.3,1.1-2.6,1.6-3.9c0.3-0.9,0.6-1.7,0.9-2.6c0.5-1.2,0.9-2.5,1.3-3.7c0.2-0.6,0.4-1.3,0.6-1.9c0.1-0.4,0.3-0.9,0.4-1.3
		c0.3-1.1,0.7-2.1,0.9-3.2c0.3-1,0.5-2,0.7-2.9c0.3-1.2,0.6-2.3,0.9-3.5c0.2-1,0.4-2.1,0.6-3.1c0.2-1.1,0.5-2.2,0.7-3.4
		c0.2-1.1,0.3-2.1,0.5-3.2s0.3-2.2,0.5-3.2c0.1-1.1,0.2-2.2,0.3-3.3c0.1-1,0.2-2.1,0.3-3.1c0.1-1.2,0.1-2.3,0.2-3.5c0-1,0.1-2,0.1-3
		c0-1.2,0-2.4,0-3.6c0-1,0-1.9,0-2.9c0-1.2-0.1-2.4-0.1-3.6c0-0.2,0-0.3,0-0.5c0-0.8-0.1-1.5-0.1-2.3c-0.1-1.3-0.2-2.5-0.3-3.8
		c-0.1-0.9-0.2-1.7-0.3-2.6c-0.1-1.3-0.3-2.6-0.5-3.9c-0.1-0.8-0.2-1.6-0.4-2.5c0-0.1,0-0.2,0-0.3c0-0.1,0-0.1,0-0.2
		c-0.2-1.2-0.4-2.3-0.6-3.5c-0.1-0.8-0.3-1.5-0.5-2.3c-0.3-1.3-0.6-2.7-0.9-4c-0.2-0.7-0.4-1.5-0.5-2.2c-0.3-1-0.5-2.1-0.8-3.1
		c0-0.1,0-0.1,0-0.2l0,0c-0.1-0.3-0.2-0.6-0.3-0.9c-0.2-0.7-0.4-1.3-0.6-2c-0.3-1-0.6-2-0.9-2.9l0,0c0-0.1-0.1-0.2-0.1-0.3
		c-0.1-0.3-0.2-0.6-0.3-1c-0.2-0.6-0.4-1.3-0.7-1.9c-0.5-1.4-1-2.8-1.6-4.2c-0.2-0.6-0.5-1.1-0.7-1.7c-0.6-1.4-1.2-2.8-1.8-4.3
		c-0.2-0.5-0.5-1-0.7-1.5c-0.7-1.4-1.4-2.9-2.1-4.3c-0.2-0.5-0.5-0.9-0.7-1.4c-0.8-1.5-1.6-2.9-2.4-4.3c-0.2-0.4-0.5-0.8-0.7-1.2
		c-0.9-1.5-1.8-2.9-2.7-4.4c-0.2-0.3-0.4-0.7-0.7-1c-1-1.5-2-3-3-4.4c-0.2-0.3-0.4-0.5-0.6-0.8c-1.1-1.5-2.2-3-3.3-4.4
		c-0.2-0.2-0.3-0.4-0.5-0.6c-1.2-1.5-2.4-3-3.7-4.5c-0.1-0.1-0.2-0.2-0.3-0.4c-1.3-1.5-2.7-3-4.1-4.5l-0.1-0.1
		c-8.8-9.2-19.1-17.3-30.7-23.9c-3.3-1.9-6.6-3.5-9.9-5.1l8.8-17.4c1.1,0.5,2.2,1,3.3,1.6c76.2,38.5,106.8,131.5,68.3,207.7
		S142.9,393.3,66.7,354.8C65.2,354.4,64.3,353.9,63.4,353.4z"/>
	<rect x="120.9" y="386.8" class="st3" width="35.6" height="38.3"/>
	<rect x="131.2" y="391.6" class="st13" width="21.3" height="28"/>
	<path class="st3" d="M64.8,435.3c0.3-8,6.9-14.4,15-14.4h117.7c8.1,0,14.6,6.4,15,14.4H64.8z"/>
	<path class="st12" d="M50.8,345.9c4.9,3.2,10,6.2,15.4,8.9c76.2,38.5,169.2,7.9,207.7-68.3s7.9-169.2-68.3-207.7
		c-5.4-2.7-10.8-5.1-16.4-7.1l9.9-19.7c5.5,2.1,10.9,4.5,16.3,7.2c87,44,121.9,150.1,78,237.2c-44,87-150.1,121.9-237.2,78
		c-5.4-2.7-10.5-5.7-15.5-8.8L50.8,345.9z"/>
	<polygon class="st14" points="191.3,99.1 177.9,92.3 204.1,40.4 217.5,47.2 	"/>
	<path class="st12" d="M224.8,38.7c-2.4-7.2-10.1-11.1-17.3-8.7c-7.2,2.4-11.1,10.1-8.7,17.3s10.1,11.1,17.3,8.7
		C223.2,53.6,227.1,45.9,224.8,38.7z"/>
	<path class="st13" d="M217.5,37.7c-1.3-3.9-5.4-5.9-9.3-4.7c-3.9,1.3-5.9,5.4-4.7,9.3c1.3,3.9,5.4,6,9.3,4.7
		C216.6,45.7,218.7,41.5,217.5,37.7z"/>
	<path class="st12" d="M14.2,452.4c0.5-13.5,11.6-24.3,25.2-24.3h198.4c13.6,0,24.7,10.8,25.2,24.3H14.2z"/>
	<path class="st13" d="M245,434.2H53c-11.6,0-21.3,2.5-23.8,5.8h234.1c-0.2-1.9-2.8-3.6-6.8-4.9C253.1,434.6,249.2,434.2,245,434.2z
		"/>
	<polygon class="st14" points="61.1,324.6 74.6,331.3 48.3,383.3 34.9,376.5 	"/>

		<rect x="31.5" y="345.5" transform="matrix(0.4507 -0.8927 0.8927 0.4507 -281.4385 240.2564)" class="st13" width="46" height="6.7"/>
	<polygon class="st13" points="200.2,54.2 206.2,57.2 187.2,94.8 181.2,91.8 	"/>
	<path class="st12" d="M27.6,385c2.4,7.2,10.1,11.1,17.3,8.7c7.2-2.4,11.1-10.1,8.7-17.3s-10.1-11.1-17.3-8.7
		C29.2,370,25.3,377.8,27.6,385z"/>
	<path class="st13" d="M45.5,375.6c-1.3-3.8-5.4-5.9-9.3-4.7c-3.8,1.3-5.9,5.4-4.7,9.2c1.3,3.9,5.4,5.9,9.3,4.7
		C44.7,383.6,46.8,379.5,45.5,375.6z"/>
	<path class="st15" d="M203.5,99.8C138.3,62.6,54.9,85.4,17.8,150.7c-37.2,65.2-14.3,148.5,50.9,185.7
		c65.2,37.2,148.5,14.4,185.7-50.9C291.5,220.3,268.7,137,203.5,99.8z"/>
	<path class="st16" d="M208.6,102.9c28.9,41.7,33.2,98.1,6.4,145c-37.2,65.2-120.5,88-185.7,50.8c-1.7-1-3.4-2-5.1-3.1
		c11.2,16.2,26.2,30.3,44.4,40.7c65.2,37.2,148.5,14.4,185.7-50.9C290.5,222,269.8,141.4,208.6,102.9z"/>
	<g>
		<path class="st17" d="M230.9,314.7c-1.6-0.9-4-1.3-4.4-0.8c-0.3,0.5-3,0.3-3.9,0.2c-0.9-0.1-3.5,1.3-4.2,1.8
			c-0.7,0.6-2.3-0.7-3.2-0.7c-0.8-0.1-2.8,0.2-3.1,0.9c-0.4,0.6-0.7,0.4-0.7-0.6c0,0,0,0-1.4,0.4c-1.6,0.5-1.6,0.5-1.6,0.5
			c-1.6,1.5-4.9,2.7-5.6,2.5s-2.7,2.9-3.4,4.2c-0.7,1.3-1.1,3.2-0.9,4.2c0,0,0,0-0.4,1.1c-0.9,2.1-0.9,2.1-0.9,2.1
			c-1.3,1.4-0.9,3.5-0.7,3.9c0.2,0.5,3.6,1.3,4.8,1.7c0.5,0.2,1.3,0.2,1.9,0.3c10.2-5.8,19.8-12.9,28.3-21.3
			C231.3,315,231.1,314.8,230.9,314.7z"/>
		<path class="st17" d="M33.9,206.4c-0.4,0.2,0.5,3.6,0.9,4.8c0.4,1.2,0.1,5.8-0.2,7.1c-0.3,1.4-1.6,3.2-2,3.6s-0.4,1.6-0.6,2.1
			c-0.2,0.4-2.9,3.5-3.4,5c-0.5,1.6-4.9,4.8-6.1,7s-1.8,5.6-1.3,5.6s-0.6,2.3-1.4,2.2c-0.8-0.1-2.6,1.2-2.2,1.5
			c0.3,0.3-1.1,1.8-1.3,2.5c-0.3,0.7-2.3,5.6-2.8,6.8c-0.5,1.2-0.5,4.8-0.7,6c-0.2,1.1-0.8,3.1-0.9,3.4c0,0.3,0,0.7,0,0.7
			s1,1.2,1.2,1.7s2.9,1.8,3.8,2.1c0.9,0.3,0.6-0.9,0.5-1.5s0.7-2.8,0.4-3.3c-0.3-0.4,1-3.1,1.6-3.4c0.7-0.4,2.7-0.4,3.2-0.8
			c0.4-0.4,1.8-2.6,1.5-3.1c-0.2-0.5,1.8-2.9,2.3-4.4c0.4-1.5,3.8-1.2,4.5-2.2c0.8-1,4.2-0.5,5.2-0.6c0.9-0.2,3.2-2.9,3.3-3.7
			c0.1-0.8,1.7-0.6,2.3-0.2c0.6,0.3,1.5,0.3,1.8,0.4c0.2,0.1,1.7-0.8,2.3-0.9c0.6-0.1,3.2-2.8,4.2-3c1-0.1,2.7-1.7,3-2.3
			c0.3-0.6,2.4-1.6,3-1.9s4,0,4.6,0.1s3.7-3.8,4.8-5.2c1-1.4,3-3,3.3-3.5s1.4-0.4,1.7-0.5c0.3-0.1,2-1.7,2.7-1.9
			c0.7-0.2,3.2-1.2,3.5-1.7c0.3-0.4,1.1-1.3,1.8-2.1c0,0,0,0,0.6-1c1-1.6,1-1.6,1-1.6c0.3-1.6-0.3-4-0.8-3.8c-0.6,0.1-1.4-2.3-2-3.1
			c-0.7-0.8-2.6-2.2-3.1-2.5s-1.5-2.9-2.2-3.6s-2.5-2.3-2.8-2.8c-0.2-0.5,1-3.9-0.1-5.8c-1.1-2-2.7-6-2.6-7.1c0.2-1.1-2-4.7-2.7-5.8
			c-0.7-1.1-2.1-2.1-2.4-2s-0.5-2.5-0.8-3.4s-2-2.5-2.4-2c-0.3,0.4-1.5-0.5-1.6-1.1c0-0.6-1.4-0.6-1.9-0.7s-3.5,1.4-4.6,1.6
			s-1.3-1.5-1.7-2c-0.3-0.5-2.5-1-3.2-0.9s-0.2-3.6,0.8-4.8c1-1.2,1.1-4.8,0-5.5s0.1-3.8,1-4.7c0.8-0.9-1.1-2.9-1.6-3.3
			s-2.8,0.2-3.5,0.8c-0.7,0.6-4.9-4.1-2.5-6.9s6.7-4.6,7.6-4.7c0.8,0,4.3,1.7,4.8,2.5c0.5,0.9,1.4,0.8,1.7,0.7
			c0.2-0.1,2.8,1.7,3.5,2.5c0.6,0.8,0,4.7,0.6,5.5c0.6,0.9,2.3-1.4,2.8-1.9s0.8-2.3,0.8-2.9s3.8-3.5,5.5-3.4
			c1.6,0.1,4.2-1.3,4.3-1.7c0.1-0.5,1.4-0.1,1.8-0.1s1.8-3.3,2.7-3.7c0.9-0.4,4.1-0.4,5.1-0.3c0.9,0.1,2.6-1.5,2.6-2
			c-0.1-0.5,3.2-1.1,4.6-0.9c1.4,0.3,1.8,1.9,1.4,1.9c0.3,0,2.4,0.1,3.3,0c1.1-0.1,1.1-2,0.8-2.7c-0.3-0.7,1-2.2,1.7-2
			s2.1-1,2.1-1.3c0-0.4,2.4,1.7,3.9,1.5s-0.8,2-2.1,2.7c-1.3,0.6-0.6,2.4,0,2.5s0.7,1.1,0.6,1.5s1.3,0.3,1.8,1s1.6-0.3,2-0.9
			c0.4-0.5-0.6-2.7-0.5-3.5c0.1-0.9,2.3-4.9,2.7-5.7c0.4-0.8,0.1-2.8-0.4-2.8s0.2-2.7-0.1-3.6c-0.3-0.8,0.2-2,0.5-2.4
			s-0.6-3.6-0.5-4.8c0.1-1.2-0.7-1.4-1-1s-1.7-0.3-2.2-0.7c-0.5-0.4,0.3-2.8,0.7-3.6c0.5-0.8-2-2.4-2-3.3c0-0.9-1.9-1.5-1.9-2.1
			s-1.2-1.9-1.6-1.9s-3.6,5.9-4.8,7.4c-1.2,1.4-3.3,2.1-3.8,1.7c-0.5-0.3-0.8,1-0.4,1.1s-1.9,1.2-2.8,2.3c-0.8,1.1-1.3-0.9-0.9-2.1
			s0.1-3.4-0.4-3.1c-0.4,0.2-0.8-1-1.3-1s-1.9-2.8-2.5-3.8s0.4-4.1,0.1-4.6c-0.4-0.6,0.3-0.6,0.5-1.1c0.2-0.4,2.9-1,3.8-1.4
			c0.9-0.3,4.3-1.8,5.4-1.9c1.1-0.1,2.5-1.2,2.5-1.6c0-0.3,4.1,0.6,5.2,0.8s3.4-1.9,4-2.6c0.5-0.7,0.6-2.5,0.3-2.9
			c-0.3-0.4,1.4,0.5,1.8,1.1s2.7,0.8,3.2,1.6s1.4,2.4,2.1,3.7c0,0,0,0-1.3,1.8c-2.3,3-2.3,3-2.3,3c-3.4-0.4-5.3,1.1-4.3,1.6
			s4.2,4.9,5,6.5c0.7,1.6,2.3-0.3,3.1-0.9c0.8-0.5,1.9-2.6,1.8-3.2c-0.1-0.6,1.6,0.5,1.8,1.3c0.2,0.7,1.3,0.1,1.8,0.2
			c0.5,0,1.7-1.6,2.1-1.9c0.4-0.2-0.4-1.2-0.2-1.7c0.2-0.5-1.2-2.4-1.7-3.1c-0.5-0.7,0.1-2.1,0.6-2.2c0.5,0,0.9-2.1,0.9-2.8
			s-1.8-2.4-2.4-2.7c-0.7-0.4-0.5-2.4-0.7-2.8c-0.3-0.4-2.7-2.2-3.5-2.4c-0.7-0.2-0.8-2.9-2.2-2.9c-1.5,0-1.8-2-2.2-2.6
			c-0.3-0.6-4.5,0.8-5.5,2.7c-1.1,1.9-1.2,4.4-0.8,4.7c0.4,0.3-1.1,1.8-1.8,2c-0.7,0.2-1.2-1.4-0.6-1.6c0.7-0.2,0.3-3.1,0.2-4.2
			c0-0.8-1.1-2.1-1.8-3c-0.8,0.3-1.7,0.6-2.5,0.9c-0.2,0.8-0.5,1.9-1.1,2.4c-1.1,1-2.2,0.6-1.9,0c0.1-0.2-0.3-0.7-0.8-1.1
			c-24.1,9-45.8,24.9-61.8,46.7c0.2,1,0.4,2.1,0.3,2.8c-0.3,1.2,1.2,2.9,1.4,3.4c0.2,0.4,1.6-1.7,1.7-2.5c0.1-0.7,0.9-0.7,0.7-0.2
			c-0.2,0.4,0.3,3.3,0.5,4.3s-1.8,5.9-1.8,7.1c0,1.3,4,6.3,5.5,7.6c1.5,1.3,2.5,4.4,2.5,5.1s2.1,2.3,2.4,2.8s0.6,2.6,0.9,3.2
			s0.1,1.7,0,1.9c-0.1,0.2,2.2,3,2.4,4.2c0.3,1.2,1.6,1.7,2,1.4c0.4-0.2-0.1,2-0.1,2.8c-0.1,0.8-0.9,2.5-1.3,2.6s-2.5,2.8-3.3,3.2
			c-0.8,0.3-4.3,4-4.6,5c-0.3,1,0.1,3.5,0.6,4.1c0.4,0.6-0.4,1.4-0.8,1.2c-0.5-0.2-2.6,4-1.9,5.3C34.3,203.8,34.2,206.2,33.9,206.4z
			"/>
		<path class="st17" d="M88.8,142.3L88.8,142.3L88.8,142.3z"/>
		<path class="st17" d="M109.2,87.8c1.6,0.6,4.1,1.5,4.5,1.2c0.3-0.2,0.9-1.2,0.8-1.7c0.2,0.1,0.5,0.3,0.7,0.4
			c0.5,0.3,3.1-2.1,4.1-2.5c0.9-0.4,4.8,0.5,5.8,0.4c1,0,3.7-0.7,4.4-0.5c0.8,0.2,2.6-0.8,2.6-1.2s3.2-0.5,4.3-0.3
			c1.1,0.1,2.2-0.6,1.8-0.9c-0.2-0.1-6.6-0.4-12.6-0.4c-7.2,0.6-14.3,1.7-21.2,3.4C105.8,86.5,108.2,87.4,109.2,87.8z"/>
		<path class="st17" d="M110.8,283.8c2,0,6.8-2.4,8.1-2.7c1.3-0.3,3.6-2.8,4.1-3.4c0.5-0.5,2.4-0.8,2.9-0.7c0.6,0.1,5.7-5.4,7.9-6
			c2.1-0.6,7.6-6.5,8.8-9c1.2-2.5,4.9-6.6,5.8-7.5c1-0.9,3.8-1.9,4.5-2s6.7-3.1,8.8-4.2c2-1.1,5.2-4.4,5.5-5.4s-1.6-2.9-2.3-2.7
			c-0.7,0.2-3-0.7-3.7-1c-0.7-0.4-0.2-4.9-0.7-6.2c-0.5-1.3,1-6,0.9-7.1s-0.5-4-0.7-4.7s0.9-3,1.2-3.7c0.2-0.7,0.7,0.9,0.4,1.9
			c-0.3,1,0.1,6,0.2,7.6s0,6.6-0.2,8.1c-0.1,1.5,4.7,3.5,6.6,3.6s4.4,0,4.7-0.4c0.3-0.4,3.3-0.1,4.2-0.3c0.9-0.1,3.1-2.5,3.7-2.7
			c0.7-0.2,1.4-3.2,1.4-4.3c-0.1-1.1-2.1-3-2.7-3c-0.7,0-0.5-2.6-0.5-3.6c0.1-0.9-1.2-2.9-1.1-3.5s1.2-1.1,1.6-1.1s2.4,4.2,2.7,5.9
			c0.3,1.7,0.2,4.5,0.1,4.9c0,0.5,2.5,2.2,3.3,2c0.8-0.1,1.4,0.4,1.3,1.1c0,0,0,0,0.9,0.3c3.1,1.2,3.1,1.2,3.1,1.2
			c0.5,2.2,0.2,3.7,0,4c-0.2,0.2,0,2,0.5,2.4c0.5,0.5-0.2,2.6-0.3,3.1c-0.1,0.6,0,4.3-0.4,5.7c-0.3,1.4-0.3,4.5-0.3,5.3
			s-0.8,2.8-1.1,3.3c-0.3,0.5,0.2,2,0.9,2.4c0.7,0.3,4.4-3.1,5.5-4.4c1.2-1.4,3-2,3.3-1.9c0.3,0.2,1-0.5,1.2-0.9
			c0.2-0.3,1.8,0.7,2.2,0.3c0.4-0.3,2.4-2.8,3.3-2.9c0.8-0.1,3.8-0.3,4.6-0.1c0.9,0.2,1.8,2.9,1.8,3.9s-0.7,3.2-1.1,3.4
			c-0.4,0.2-0.2,2.6,0.9,3.1c1,0.5,0.6,2,0.3,2.5c-0.2,0.5,0.3,2.6,0.3,3.4c-0.1,0.8-1.1,2.4-1.5,2.6c-0.4,0.3-1.5,2.5-1.7,3.2
			s1.2,5.6,1.8,7.2c0.6,1.6,2.8-1,2.7-2.2c-0.1-1.3-0.9-4.5-1-5.4s1.3-3.5,1.8-4.1c0.6-0.6,1.6,1.4,1.9,2.3c0.4,0.9,0.6,2.5,0.4,2.9
			s5.3,0.4,6.9-2c1.6-2.5,4.6-4.5,5.1-5.1s0.5-1.8,0.1-2c-0.3-0.2,1.7-1.6,2.9-0.9c1.1,0.7,5.7-0.8,7.1-1.7c1.4-0.9,3.3-1.1,3.5-1.2
			c0.3-0.1,2.9-2.5,3.7-3.6c0.9-1.1,1.1-3.5,1.4-4.2s0.1-2.7,0.1-3.3c0-0.6,0.7-2.4,1.1-2.7c0.3-0.2,1.6,0,1.9-0.2s2.2-0.8,2.4-1.5
			c0.2-0.6,0.3,1.2,0.6,1.9c0.3,0.8-0.8,4.1-0.3,4.8c0.5,0.7,5.2-1.2,6.2-3.7s3.7-4.7,4.6-4.6c0.6,0.1,3-1,4.6-1.8
			c3.9-21,2.8-42.4-2.9-62.5c-0.2-0.1-0.3-0.2-0.4-0.3c-0.9-0.8-0.9-0.8-0.9-0.8c-1.5-1.3-1.4-3.7-0.9-4c0.1-0.1,0.3-0.4,0.4-0.8
			c-0.5-1.4-1-2.8-1.5-4.2c-0.8-0.5-1.6-0.9-2.1-1.2c-1-0.6-2.8-2.6-3-3.2s-1.9-0.6-2.4,0.1s-3-0.3-3.5,0.2
			c-0.6,0.4-1.8-0.2-1.8-0.7c-0.1-0.5-2.8-0.6-4-1c-1.2-0.5-3.7-0.7-4.3-0.8c-0.6,0-2.3,0.4-2.8,0.8s-2.2,0.3-2.8,0.3
			c-0.5-0.1-1.6,2-1.2,2.6s-0.9-0.8-1.4-1.6c-0.5-0.8-2,0-2.5,0.3s-0.8-0.8-0.4-1.3c0.4-0.6-1.2-2.1-1.7-1.8c-0.5,0.4-1.4-1-1.8-1.6
			s-3.9,0.5-5.2,0.8c-1.3,0.4-5.6-1.2-6.2-2c-0.6-0.7-2.5,0.9-1.9,1.4s-1.5-1-2.8-1.6s-5.7-1.2-6.9-1c-1.2,0.2-1.5-1-1.2-1.5
			s-0.8-1.7-1.2-2.1c-0.3-0.4-2.7,2-3.7,2.1s-0.3-3.1-1.7-4.5c-1.4-1.4-3.1-4.5-3.7-5.1s-1.2-3-1.4-3.7c-0.2-0.7-2.1-2.3-2.8-2.7
			c-0.7-0.4-3.6-0.4-4.5-0.2c-0.9,0.2-1.7-0.5-2.1-0.4c-0.4,0-4.3,1.1-5.7,1.3c-1.4,0.2-5,2.5-5.9,3c-1,0.5-1.9,0.2-2.2,0
			c-0.3-0.2-1.1,0.6-1.3,0.9c-0.2,0.3-3.9,0.2-4.9,1.3c-1,1.1-2.2,4.4-2.7,5.5c-0.6,1.1-0.7,3.7,0,4.2c0.8,0.5-0.7,2-1.1,2.4
			c-0.5,0.4-0.1,1.3-0.4,1.7c-0.2,0.4-2.6-0.1-3.3-0.2c-0.7-0.1-2.5,0.7-2.9,1.1s-2.5-0.4-3.4-0.1c0.4-0.4,1-0.9,1.3-1.1
			c0.8-0.5,0.9-2,0.8-2.4c-0.2-0.4,1.6-4,1.6-5c-0.1-1-0.5-2.9-0.7-3.4c-0.2-0.4,0.9-1,1.3-1.3s-1.3-1.5-1.9-1.5s-2.8,3.3-3.6,4.1
			c-0.7,0.8-0.5,2.9-0.2,3.1c0.2,0.3-0.8,1.9-1.4,1.6c-0.7-0.3-2.6,1.8-2.6,2.6c0,0.8-1.4,1.4-1.9,1.4s2.4,1.5,3.6,2.2
			c1.3,0.7,1.9,1.8,1.7,1.8c-0.2,0-2.7-0.9-3.4-0.6c-0.7,0.3-2.9,0.5-3.4,0.7s-0.3,1.6,0.4,1.9c0.7,0.3,0.1,3.1,0.4,3.8
			c0.3,0.7-0.6,1.8-1,2s-3.2-2.2-4.5-2.5c-1.3-0.4-4.2,1.3-4.9,2.1c-0.6,0.9-1.9,3.7-2.1,4.6c-0.3,0.8,1.9,2.7,2.2,3.3
			c0.3,0.6,2.9,1.6,3.2,2.1c0.3,0.5,3.4-1.2,4.4-2.2s4.8-1.8,5.8-2.4c1-0.5,3.6,1.1,4.5,1c0.9,0-0.8,2.2-1.3,3.8
			c-0.5,1.5,2.2,2.8,2.6,1.3c0.3-1.5,1.3-1.7,1.1-1.2c-0.1,0.5,1.8,2.9,1.8,3.9s-1,2.4-1.5,2.1c-0.6-0.3-1.5,1.4-1,1.9
			s2.4-1.2,3.2-1.1c0.8,0,2.1-1,1.8-1.2c-0.2-0.3,1.3-1,1.4-0.4s0.1-3.3-0.3-4.9c-0.4-1.7,0-0.8,1,2c0,0,0,0,0.3,2.7
			c0,0.5-0.2,1.7-0.2,2.3c0,0.7,0,0.7,0,0.7c-0.1,0.8-0.9,2.8-1.2,3.3c-0.3,0.5,0.2,2.1,0.9,2.4c0.6,0.3,1,1,0.8,0.9
			c-0.2,0-0.3,1.5,0.3,1.9c0.6,0.4,1.8-1.1,1.2-1.5c-0.6-0.4,0.8-2.7,1.3-3.8c0.5-1.1,1.6-1.6,1.8-1.5c0.2,0.1-1.2,2.1-1.5,2.6
			s-0.6,1.6-0.6,2.5c0,0,0,0,0.3,0.9c0.8,2,0.8,2,0.8,2c2.5,0.6,5.1,2.7,4.8,3.1c-0.4,0.4,1.3,1.5,1.8,0.8c0.5-0.6,0.2,0.1-0.1,0.6
			c-0.2,0.5-2.8,1.6-3.5,2.3c-0.7,0.8-5.3-2.7-7.4-4c-2.1-1.4-5.6-2.4-6.2-2c-0.6,0.5-2.7-3.5-3.9-5c-1.2-1.5-1-4.5-1.2-5
			c-0.1-0.5,0.9-0.9,1-1.5c0.1-0.5-3.3-2.6-4.5-2.8c-1.2-0.2-6.7-2.6-8.3-2.8c-1.5-0.2-3.1-1.8-3.6-2.3c-0.5-0.4-2.9,0.5-3.7,0.4
			c-0.9-0.1-3.1,1.8-5,4.2c0,0,0,0-2,1.3c-1.3,0.9-1.3,0.9-1.3,0.9c-2.5,0.3-6.8,3.6-7.9,4.1c-1.1,0.6-5.1,6.6-6.3,8.7
			c-1.2,2.1-1.9,7.7-2.1,9.2s1.4,6.1,2.1,7.4c0.7,1.2,4.1,3.3,5.3,4c1.1,0.6,3.1,0.3,4.2-0.8c0,0,0,0,1.6,1.1
			c0.7,0.5,0.7,0.5,0.7,0.5c-0.5,1,1.5,3.1,2,3.8c0.4,0.7,2.2,1.3,2.7,1.5c0.6,0.1-1.4,4.8-2.4,5.8c-1.1,1-2.4,6.1-2.8,7.6
			s-1,6-1.5,7.4c-0.6,1.4-4.1,5.1-5.1,6.5s-1.4,6.8-1.7,8.6c-0.3,1.8-1.6,5.2-2,5.9c-0.4,0.7-0.7,6.4-1.2,8.5
			C103.4,280.1,108.8,283.8,110.8,283.8z"/>
		<path class="st17" d="M238.9,285.7c0,0.4,2,0.1,3,0.5c0.9,0.3,2.8-1.6,2.2-2.2c-0.6-0.6-0.4-2.8-0.8-3.3s-1.9,0-2.2,0.7
			c-0.4,0.7-2.1,0.1-2.7,0.5s-0.9,0.8-0.5,1C238.2,282.9,239,285.3,238.9,285.7z"/>
		<path class="st17" d="M230.1,297.1c0.5,0.1,1.3-2.4,0.6-3.1c-0.8-0.7-5,1.1-5.6,3.2s0,2.2,0.5,2s1.6,1.2,1.9,1.6
			c0.4,0.4,0.6-0.1,0.6-1C227.9,298.9,229.6,297,230.1,297.1z"/>
		<path class="st17" d="M226.5,292.1c0.6-0.7,2.2-3.2,2.6-3.6s-0.3-2.8-0.9-3.4c-0.6-0.7-5.9,3.1-8.2,3c-2.2,0-4.6,2.7-4.6,3.7
			c0.1,1,3.4,3.4,3.7,4.3c0.3,0.9,1.4,0.7,1.8,0.8c0.4,0.1,0.5-0.2,0.3-0.4c-0.1-0.2,2.1-0.9,2.9-1.7
			C224.9,294.2,226,292.9,226.5,292.1z"/>
		<path class="st17" d="M211.9,295.2c-1-1.3-3.1-1.4-3.5-0.9c-0.4,0.4,4.4,4.3,5.9,5.8s2.5,2.3,2.3,1.7
			C216.3,301.2,212.9,296.5,211.9,295.2z"/>
		<path class="st17" d="M242.2,266.9c0.8-0.3,1.3-3.7,0.5-3.3c-0.9,0.3-1.4,2.1-1.6,2.8C241,267,241.5,267.3,242.2,266.9z"/>
		<path class="st17" d="M242.1,274.7c0.7-0.5,0.5-1.7-0.5-2.6s-2.8,2.6-2.5,3.4C239.2,276.1,241.3,275.2,242.1,274.7z"/>
		<path class="st17" d="M235.8,299.4c0.8,1.7,4.1,3,5.3,1.2C240.3,299,236.9,297.3,235.8,299.4z"/>
		<path class="st17" d="M259.1,256.8c-0.8,0.1-1.7,0.9-1.7,1.4c-0.1-0.1-0.1-0.1-0.2-0.2c-0.4-0.3-1.5,1.5-1.2,2.1s2.4-0.5,3.3-0.5
			c0.8-0.1,2.2,0.4,2.3,0.6c0.1,0.2,1.4,0.5,2.8,0.6c0.2,0,0.6-0.2,1.1-0.4c0.5-1.5,0.9-3,1.4-4.4c-0.8,0.1-1.7,0.2-2.2,0.3
			C263.7,256.5,260.2,256.7,259.1,256.8z"/>
		<path class="st17" d="M207.2,275.2C207.2,275.3,207.2,275.3,207.2,275.2C207.1,275,207.1,274.9,207.2,275.2z"/>
		<path class="st17" d="M211.2,288.1c0.2-1.4-0.4-4.2-1.2-6.3c0,0,0,0-0.1-1.3c0-1.4,0-1.4,0-1.4c0.1-1.5-1.1-3.3-1.1-3.7
			c0-0.4-1.2,0.6-1.6-0.1c0.2,0.4,0.6,1.2,1.1,2.3c0.9,2.1-0.4,11.5,0,12.4C208.7,291,211.1,289.4,211.2,288.1z"/>
		<path class="st17" d="M193.9,261.7c-0.9,0.6,0.7,4,1.2,3.7s1.1-2.8,0.9-3.5C195.7,261.1,194.8,261.1,193.9,261.7z"/>
		<path class="st17" d="M134.7,282.5c-0.4,1,1,2.8,1.7,2.9c0.6,0.1,3.7-1.8,4.4-2.4c0.7-0.7,1.8-2.3,2.1-2.7c0.2-0.4,1-1.2,1.3-1.2
			s1.1-0.7,2-1.6c0.8-1,2.2-6.6,2.7-7.4c0.5-0.9-1.2-0.1-2,0.6s-4.2,1.1-5.1,1.5s-3,2.6-3,3.1s-1.4,2-1.9,2.3
			C136.1,277.9,135.1,281.5,134.7,282.5z"/>
		<path class="st17" d="M28.3,266.4c0.5,0.3,1.1,0.6,1.6,0.9C31.2,265.7,29.1,264.9,28.3,266.4z"/>
		<path class="st17" d="M176,108.1c-0.7-0.3-2.3-1.7-2.4-2.2c-0.2-0.5-2.6-2.3-3.6-2.4c-0.9-0.1,0.8-2,2-1.6s1.1-1.6,0-2.3
			c-1.1-0.6-3.7-2.6-4.4-2.9c-0.7-0.2-1.7-1.6-2.1-1.9c-0.4-0.3-4.4-1.2-5.9-2.2s-5.5-3-6.5-3.3s-2.5,1-2.7,1.7
			c-0.2,0.6-4.1-1.6-5.3-2.2c-1.2-0.7-8.6-3-10.8-3.1c-2.2,0-4.9,1.6-4.4,2s-1.8,0.9-2.8,0.6c-1.1-0.2-3.4-1.3-4.2-1.1
			c-0.8,0.2,0.1,1.2,0.1,1.6c0,0.5,1,0.1,1.3,0.8c0.4,0.6,2.2,1.9,2.6,2.3c0.4,0.5-2-0.3-3-0.8s-1.9,1.6-1.3,2.3
			c0.7,0.7,2.6,2.2,3,2s2.3,1.8,3.3,2.5c0.9,0.7,0.3,3.7,0.3,4.4s-1,2.7-1.4,3.2c-0.4,0.5,0.9,2.6,1.4,2.5c0.5-0.2-0.3,1-1,0.5
			c-0.7-0.5-1.5,1.9-0.7,2.8c0.8,0.8-0.6,1.8-1.4,1.9c-0.7,0.1-1.2,1.6-2,1.7c-0.8,0.1-0.8,5.9-2.1,8.1c-1.3,2.2-0.9,4.8-0.4,5.1
			c0.5,0.3,2.1,1.8,2.1,2.4s1.3,0.3,1.9,0.1c0.6-0.2,1.9-0.8,3-1.4c1.1-0.6,4.9-4.4,5.3-4.7c0.4-0.4,2.4,1.1,3,1.1s2.6-0.3,3.2-0.4
			s4.3,0.3,5.4,0.2c1.1-0.1,3.9-1.9,4.9-2.1c0.9-0.2-0.1-0.6-0.6-1.5c-0.5-1,0.2-1.4,0.6-1.5s2.4,1.9,3.1,2.7
			c0.6,0.8,2.9,0.6,2.5-0.2c-0.3-0.8,0-0.6,0.2-0.2c0.2,0.3,1.4-1.1,1.3-1.6s3.7-0.9,4.3-3.1c0.6-2.2,3-3.4,3.7-3
			c0.8,0.4,1.7-1.8,1-2.6c-0.8-0.7,0.2-0.4,0.7-0.5s2-1.8,2-2.3s1.8,0,2.3-0.3s2.8-0.1,3.5,0.1C175.4,109.9,176.7,108.4,176,108.1z"
			/>
		<path class="st17" d="M190.5,118.4c-0.7-0.8-2.9-0.8-3-0.2c-0.1,0.7-1-1.5-2.5-1.5c-1.4-0.1-2.9,1.7-2.5,2.3
			c0.4,0.6-0.2,2.3-0.3,2.6c-0.2,0.3,2.1,1.3,2.9,1.2c0.8-0.1-0.4,1.9-1.3,2.1s-0.7,1.8-0.2,2.2c0.6,0.4,0.6,2.3,1.2,2.7
			c0.6,0.4,3.1-1.4,3.8-2.2c0.8-0.8,2.4,1.1,3.2,2c0.8,0.8,3.2-2.6,2.4-3.7c-0.7-1.1-2.1-1.6-2.4-2.2c-0.2-0.6-0.7-1.5-1.1-1.8
			C190.4,121.5,191.2,119.2,190.5,118.4z"/>
		<path class="st17" d="M197.8,124.8c1.5,1.2,4.2,0.9,4.8,0.7c0.6-0.1-3.8-4-5.7-5.2c-1.9-1.2-3.6-1.8-3.8-1.4
			C193,119.4,196.3,123.6,197.8,124.8z"/>
		<path class="st17" d="M141.6,152.6c-0.3-0.4-1.5,1.1-1.8,1.8c-0.3,0.7,1.3,1.5,2,1.8s1.5,0,1.8-0.5c0.3-0.6,0.7-3.5,0.4-3.8
			C143.7,151.6,142,153,141.6,152.6z"/>
		<path class="st17" d="M157.5,136.2c0-0.8-2.7-2.2-3.3-2.6c-0.6-0.4-2.2-2.2-2.4-2.8c-0.1-0.6-1.5,1.2-2.3,1.2
			c-0.7-0.1-0.1,0.8,0.3,0.7c0.4-0.1-0.6,1-1.1,1.3s1.3,1.7,1.2,2.5c-0.2,0.8,0.4,1.7,1.3,2s2.9,0.4,3.5,0.7
			C155.3,139.5,157.5,137,157.5,136.2z"/>
		<path class="st17" d="M221,152.6c1.4-0.4,5.8,0.5,6.8-0.2s0.7-1.8,0.3-2.1c-0.4-0.2-1.1,0-1.3,0.1c-0.2,0.1-5-1.3-6.7-1.4
			c-1.6-0.1-3.7,0-4.6,0.2s-4.2,3.9-4.7,4.2c-0.6,0.3,0.2,3,0.6,3.9c0.5,0.9,1.7,1.3,2,1.3c0.3,0.1,1.3-3.3,1.5-4.5
			C215.2,152.9,219.6,153,221,152.6z"/>
		<path class="st17" d="M222.7,139c0.6,2.2,2.5,0.6,3.9,1.7C228.2,137.9,223.9,136.7,222.7,139z"/>
		<path class="st17" d="M249.6,155c-0.3,0.5,3.3,3.1,4.6,3.6c1.3,0.5,0.9-2.1-0.8-2.9C251.6,154.8,249.9,154.5,249.6,155z"/>
		<path class="st17" d="M91.6,103.4c-0.6,0.1-1.4,2.2-0.6,2.7s3.7-1.7,4.3-0.6c0.6,1.1,1.1,1.7,1.1,1.3s-2-3.2-2.3-3.6
			C93.9,102.9,92.2,103.2,91.6,103.4z"/>
		<path class="st17" d="M64.6,173.9c-0.2,0.3,1.5,1.2,2.1,0.9c0.6-0.4,0.7-0.9,0.2-1.1C66.4,173.4,64.8,173.6,64.6,173.9z"/>
		<path class="st17" d="M58.6,166.8c0.9,0.3-0.2,1.4-0.3,2c-0.1,0.6,1.7,2.1,1.9,2.6c0.2,0.5,1.7,0.2,2.5,0.7
			c0.7,0.5,1.3-2.8-0.1-3.5c-1.4-0.7-1.7-2.5-1.9-2.9c-0.2-0.3-1.2-2.1-1.5-2.7c-0.2-0.6-3.4-2.8-4.5-3.4s-3-0.2-3.4,0.1
			c-0.4,0.3,1.4,1.7,2.2,1.7c0.7,0,3,2.2,3.2,3.1C56.8,165.5,57.7,166.5,58.6,166.8z"/>
		<path class="st17" d="M53.4,167.6c-0.2,0.3,1.6,1.1,2.1,1.4c0.4,0.2,0.6,0,0.3-0.6C55.6,167.7,53.6,167.3,53.4,167.6z"/>
		<path class="st17" d="M59.7,159.4c-0.3-0.4-1.1,0.1-1.3,0.4c-0.2,0.3-0.1,0.7,0.2,0.9C58.9,160.9,60,159.9,59.7,159.4z"/>
		<path class="st17" d="M63.2,161.8c0-0.4-0.6-1.1-0.8-1.2c-0.2-0.1-0.7,0.3-1.1,1.1C60.9,162.3,63.1,162.2,63.2,161.8z"/>
		<path class="st17" d="M63.4,167.2c0.9,0.1,1.5-0.7,1-0.9c-0.4-0.2-0.5-1.9-0.8-2.3s-1.3,0.3-1.5,0.7c-0.2,0.4-0.1,0.8,0.2,0.9
			C62.7,165.7,62.6,167.2,63.4,167.2z"/>
		<path class="st17" d="M240.2,303.8c-0.5,0-2.3-0.8-2.3-1.3s-1,0.4-1.4,0.3c-0.5,0-0.8,1-0.1,1c0.5,0,1.6,1.9,2.5,3.5
			c1-1.2,2-2.4,3-3.6C241.2,303.7,240.5,303.8,240.2,303.8z"/>
	</g>
	<path class="st18" d="M114.5,87.6c-0.1-0.2-0.8-0.1-0.7,0.2C113.9,88.1,114.5,88,114.5,87.6z"/>
	<path class="st18" d="M105.3,134.2c0-0.2-0.7-0.1-0.7,0.2C104.7,134.6,105.4,134.5,105.3,134.2z"/>
	<g class="st19">
		<path class="st20" d="M73,226.5c0.7-0.2,3.2-1.2,3.5-1.7c0.3-0.4,1.1-1.3,1.8-2.1c0,0,0,0,0.6-1c1-1.6,1-1.6,1-1.6
			c0.3-1.6-0.3-4-0.8-3.8c-0.6,0.1-1.4-2.3-2-3.1c-0.7-0.8-2.6-2.2-3.1-2.5s-1.5-2.9-2.2-3.6s-2.5-2.3-2.8-2.8
			c-0.2-0.5,1-3.9-0.1-5.8c-1.1-2-2.7-6-2.6-7.1c0.2-1.1-2-4.7-2.7-5.8c-0.7-1.1-2.1-2.1-2.4-2s-0.5-2.5-0.8-3.4s-2-2.5-2.4-2
			c-0.3,0.4-1.5-0.5-1.6-1.1c0-0.6-1.4-0.6-1.9-0.7s-3.5,1.4-4.6,1.6s-1.3-1.5-1.7-2c-0.3-0.5-2.5-1-3.2-0.9s-0.2-3.6,0.8-4.8
			c1-1.2,1.1-4.8,0-5.5s0.1-3.8,1-4.7c0.8-0.9-1.1-2.9-1.6-3.3s-2.8,0.2-3.5,0.8c-0.7,0.6-4.9-4.1-2.5-6.9s6.7-4.6,7.6-4.7
			c0.8,0,4.3,1.7,4.8,2.5c0.5,0.9,1.4,0.8,1.7,0.7c0.2-0.1,2.8,1.7,3.5,2.5c0.6,0.8,0,4.7,0.6,5.5c0.6,0.9,2.3-1.4,2.8-1.9
			s0.8-2.3,0.8-2.9s3.8-3.5,5.5-3.4c1.6,0.1,4.2-1.3,4.3-1.7c0.1-0.5,1.4-0.1,1.8-0.1s1.8-3.3,2.7-3.7c0.9-0.4,4.1-0.4,5.1-0.3
			c0.9,0.1,2.6-1.5,2.6-2c-0.1-0.5,3.2-1.1,4.6-0.9c1.4,0.3,1.8,1.9,1.4,1.9c0.3,0,2.4,0.1,3.3,0c1.1-0.1,1.1-2,0.8-2.7
			c-0.3-0.7,1-2.2,1.7-2s2.1-1,2.1-1.3c0-0.4,2.4,1.7,3.9,1.5s-0.8,2-2.1,2.7c-1.3,0.6-0.6,2.4,0,2.5s0.7,1.1,0.6,1.5s1.3,0.3,1.8,1
			s1.6-0.3,2-0.9c0.4-0.5-0.6-2.7-0.5-3.5c0.1-0.9,2.3-4.9,2.7-5.7c0.4-0.8,0.1-2.8-0.4-2.8s0.2-2.7-0.1-3.6c-0.3-0.8,0.2-2,0.5-2.4
			s-0.6-3.6-0.5-4.8c0.1-1.2-0.7-1.4-1-1s-1.7-0.3-2.2-0.7c-0.5-0.4,0.3-2.8,0.7-3.6c0.5-0.8-2-2.4-2-3.3c0-0.9-1.9-1.5-1.9-2.1
			s-1.2-1.9-1.6-1.9s-3.6,5.9-4.8,7.4c-1.2,1.4-3.3,2.1-3.8,1.7c-0.5-0.3-0.8,1-0.4,1.1s-1.9,1.2-2.8,2.3c-0.8,1.1-1.3-0.9-0.9-2.1
			s0.1-3.4-0.4-3.1c-0.4,0.2-0.8-1-1.3-1s-1.9-2.8-2.5-3.8s0.4-4.1,0.1-4.6c-0.4-0.6,0.3-0.6,0.5-1.1c0.2-0.4,2.9-1,3.8-1.4
			c0.9-0.3,4.3-1.8,5.4-1.9c1.1-0.1,2.5-1.2,2.5-1.6c0-0.3,4.1,0.6,5.2,0.8s3.4-1.9,4-2.6c0.5-0.7,0.6-2.5,0.3-2.9
			c-0.3-0.4,1.4,0.5,1.8,1.1s2.7,0.8,3.2,1.6s1.4,2.4,2.1,3.7c0,0,0,0-1.3,1.8c-2.3,3-2.3,3-2.3,3c-3.4-0.4-5.3,1.1-4.3,1.6
			s4.2,4.9,5,6.5c0.7,1.6,2.3-0.3,3.1-0.9c0.8-0.5,1.9-2.6,1.8-3.2c-0.1-0.6,1.6,0.5,1.8,1.3c0.2,0.7,1.3,0.1,1.8,0.2
			c0.5,0,1.7-1.6,2.1-1.9c0.4-0.2-0.4-1.2-0.2-1.7c0.2-0.5-1.2-2.4-1.7-3.1c-0.5-0.7,0.1-2.1,0.6-2.2c0.5,0,0.9-2.1,0.9-2.8
			s-1.8-2.4-2.4-2.7c-0.7-0.4-0.5-2.4-0.7-2.8c-0.3-0.4-2.7-2.2-3.5-2.4c-0.7-0.2-0.8-2.9-2.2-2.9c-1.5,0-1.8-2-2.2-2.6
			c-0.3-0.6-4.5,0.8-5.5,2.7c-1.1,1.9-1.2,4.4-0.8,4.7c0.4,0.3-1.1,1.8-1.8,2c-0.7,0.2-1.2-1.4-0.6-1.6c0.7-0.2,0.3-3.1,0.2-4.2
			c0-0.8-1.1-2.1-1.8-3c-0.8,0.3-1.7,0.6-2.5,0.9c-0.2,0.8-0.5,1.9-1.1,2.4c-1.1,1-2.2,0.6-1.9,0c0.1-0.2-0.3-0.7-0.8-1.1
			c-24.1,9-45.8,24.9-61.8,46.7c0.2,1,0.4,2.1,0.3,2.8c-0.3,1.2,1.2,2.9,1.4,3.4c0.2,0.4,1.6-1.7,1.7-2.5c0.1-0.7,0.9-0.7,0.7-0.2
			c-0.2,0.4,0.3,3.3,0.5,4.3s-1.8,5.9-1.8,7.1c0,1.3,4,6.3,5.5,7.6c1.5,1.3,2.5,4.4,2.5,5.1s2.1,2.3,2.4,2.8s0.6,2.6,0.9,3.2
			s0.1,1.7,0,1.9c-0.1,0.2,2.2,3,2.4,4.2c0.3,1.2,1.6,1.7,2,1.4c0.4-0.2-0.1,2-0.1,2.8c-0.1,0.8-0.9,2.5-1.3,2.6s-2.5,2.8-3.3,3.2
			c-0.8,0.3-4.3,4-4.6,5c-0.3,1,0.1,3.5,0.6,4.1c0.4,0.6-0.4,1.4-0.8,1.2c-0.5-0.2-2.6,4-1.9,5.3c0.8,1.2,0.6,3.6,0.3,3.8
			c-0.4,0.2,0.5,3.6,0.9,4.8c0.4,1.2,0.1,5.8-0.2,7.1c-0.3,1.4-1.6,3.2-2,3.6s-0.4,1.6-0.6,2.1c-0.2,0.4-2.9,3.5-3.4,5
			c-0.5,1.6-4.9,4.8-6.1,7s-1.8,5.6-1.3,5.6s-0.6,2.3-1.4,2.2c-0.8-0.1-2.6,1.2-2.2,1.5c0.3,0.3-1.1,1.8-1.3,2.5
			c-0.3,0.7-2.3,5.6-2.8,6.8c-0.5,1.2-0.5,4.8-0.7,6c-0.2,1.1-0.8,3.1-0.9,3.4c0,0.3,0,0.7,0,0.7s1,1.2,1.2,1.7s2.9,1.8,3.8,2.1
			c0.9,0.3,0.6-0.9,0.5-1.5s0.7-2.8,0.4-3.3c-0.3-0.4,1-3.1,1.6-3.4c0.7-0.4,2.7-0.4,3.2-0.8c0.4-0.4,1.8-2.6,1.5-3.1
			c-0.2-0.5,1.8-2.9,2.3-4.4c0.4-1.5,3.8-1.2,4.5-2.2c0.8-1,4.2-0.5,5.2-0.6c0.9-0.2,3.2-2.9,3.3-3.7c0.1-0.8,1.7-0.6,2.3-0.2
			c0.6,0.3,1.5,0.3,1.8,0.4c0.2,0.1,1.7-0.8,2.3-0.9c0.6-0.1,3.2-2.8,4.2-3c1-0.1,2.7-1.7,3-2.3c0.3-0.6,2.4-1.6,3-1.9s4,0,4.6,0.1
			s3.7-3.8,4.8-5.2c1-1.4,3-3,3.3-3.5s1.4-0.4,1.7-0.5C70.6,228.3,72.4,226.7,73,226.5z"/>
		<line class="st21" x1="88.9" y1="142.3" x2="88.8" y2="142.3"/>
		<path class="st20" d="M119.2,85.2c0.9-0.4,4.8,0.5,5.8,0.4c1,0,3.7-0.7,4.4-0.5c0.8,0.2,2.6-0.8,2.6-1.2s3.2-0.5,4.3-0.3
			c1.1,0.1,2.2-0.6,1.8-0.9c-0.2-0.1-6.6-0.4-12.6-0.4c-7.2,0.6-14.3,1.7-21.2,3.4c1.5,0.7,3.8,1.7,4.8,2.1c1.6,0.6,4.1,1.5,4.5,1.2
			c0.3-0.2,0.9-1.2,0.8-1.7c0.2,0.1,0.5,0.3,0.7,0.4C115.7,88,118.3,85.6,119.2,85.2z"/>
		<path class="st20" d="M232,166.1c-0.1,0.1-0.1,0.1-0.2,0.1c-0.5,0.3-0.8-0.8-0.4-1.3c0.4-0.6-1.2-2.1-1.7-1.8
			c-0.5,0.4-1.4-1-1.8-1.6s-3.9,0.5-5.2,0.8c-1.3,0.4-5.6-1.2-6.2-2c-0.6-0.7-2.5,0.9-1.9,1.4s-1.5-1-2.8-1.6s-5.7-1.2-6.9-1
			c-1.2,0.2-1.5-1-1.2-1.5s-0.8-1.7-1.2-2.1c-0.3-0.4-2.7,2-3.7,2.1s-0.3-3.1-1.7-4.5c-1.4-1.4-3.1-4.5-3.7-5.1s-1.2-3-1.4-3.7
			c-0.2-0.7-2.1-2.3-2.8-2.7c-0.7-0.4-3.6-0.4-4.5-0.2c-0.9,0.2-1.7-0.5-2.1-0.4c-0.4,0-4.3,1.1-5.7,1.3c-1.4,0.2-5,2.5-5.9,3
			c-1,0.5-1.9,0.2-2.2,0c-0.3-0.2-1.1,0.6-1.3,0.9c-0.2,0.3-3.9,0.2-4.9,1.3c-1,1.1-2.2,4.4-2.7,5.5c-0.6,1.1-0.7,3.7,0,4.2
			c0.8,0.5-0.7,2-1.1,2.4c-0.5,0.4-0.1,1.3-0.4,1.7c-0.2,0.4-2.6-0.1-3.3-0.2c-0.7-0.1-2.5,0.7-2.9,1.1s-2.5-0.4-3.4-0.1
			c0.4-0.4,1-0.9,1.3-1.1c0.8-0.5,0.9-2,0.8-2.4c-0.2-0.4,1.6-4,1.6-5c-0.1-1-0.5-2.9-0.7-3.4c-0.2-0.4,0.9-1,1.3-1.3
			s-1.3-1.5-1.9-1.5s-2.8,3.3-3.6,4.1c-0.7,0.8-0.5,2.9-0.2,3.1c0.2,0.3-0.8,1.9-1.4,1.6c-0.7-0.3-2.6,1.8-2.6,2.6
			c0,0.8-1.4,1.4-1.9,1.4s2.4,1.5,3.6,2.2c1.3,0.7,1.9,1.8,1.7,1.8c-0.2,0-2.7-0.9-3.4-0.6c-0.7,0.3-2.9,0.5-3.4,0.7
			s-0.3,1.6,0.4,1.9c0.7,0.3,0.1,3.1,0.4,3.8c0.3,0.7-0.6,1.8-1,2s-3.2-2.2-4.5-2.5c-1.3-0.4-4.2,1.3-4.9,2.1
			c-0.6,0.9-1.9,3.7-2.1,4.6c-0.3,0.8,1.9,2.7,2.2,3.3c0.3,0.6,2.9,1.6,3.2,2.1c0.3,0.5,3.4-1.2,4.4-2.2s4.8-1.8,5.8-2.4
			c1-0.5,3.6,1.1,4.5,1c0.9,0-0.8,2.2-1.3,3.8c-0.5,1.5,2.2,2.8,2.6,1.3c0.3-1.5,1.3-1.7,1.1-1.2c-0.1,0.5,1.8,2.9,1.8,3.9
			s-1,2.4-1.5,2.1c-0.6-0.3-1.5,1.4-1,1.9s2.4-1.2,3.2-1.1c0.8,0,2.1-1,1.8-1.2c-0.2-0.3,1.3-1,1.4-0.4s0.1-3.3-0.3-4.9
			c-0.4-1.7,0-0.8,1,2c0,0,0,0,0.3,2.7c0,0.5-0.2,1.7-0.2,2.3c0,0.7,0,0.7,0,0.7c-0.1,0.8-0.9,2.8-1.2,3.3c-0.3,0.5,0.2,2.1,0.9,2.4
			c0.6,0.3,1,1,0.8,0.9c-0.2,0-0.3,1.5,0.3,1.9c0.6,0.4,1.8-1.1,1.2-1.5c-0.6-0.4,0.8-2.7,1.3-3.8c0.5-1.1,1.6-1.6,1.8-1.5
			c0.2,0.1-1.2,2.1-1.5,2.6s-0.6,1.6-0.6,2.5c0,0,0,0,0.3,0.9c0.8,2,0.8,2,0.8,2c2.5,0.6,5.1,2.7,4.8,3.1c-0.4,0.4,1.3,1.5,1.8,0.8
			c0.5-0.6,0.2,0.1-0.1,0.6c-0.2,0.5-2.8,1.6-3.5,2.3c-0.7,0.8-5.3-2.7-7.4-4c-2.1-1.4-5.6-2.4-6.2-2c-0.6,0.5-2.7-3.5-3.9-5
			c-1.2-1.5-1-4.5-1.2-5c-0.1-0.5,0.9-0.9,1-1.5c0.1-0.5-3.3-2.6-4.5-2.8c-1.2-0.2-6.7-2.6-8.3-2.8c-1.5-0.2-3.1-1.8-3.6-2.3
			c-0.5-0.4-2.9,0.5-3.7,0.4c-0.9-0.1-3.1,1.8-5,4.2c0,0,0,0-2,1.3c-1.3,0.9-1.3,0.9-1.3,0.9c-2.5,0.3-6.8,3.6-7.9,4.1
			c-1.1,0.6-5.1,6.6-6.3,8.7c-1.2,2.1-1.9,7.7-2.1,9.2s1.4,6.1,2.1,7.4c0.7,1.2,4.1,3.3,5.3,4c1.1,0.6,3.1,0.3,4.2-0.8
			c0,0,0,0,1.6,1.1c0.7,0.5,0.7,0.5,0.7,0.5c-0.5,1,1.5,3.1,2,3.8c0.4,0.7,2.2,1.3,2.7,1.5c0.6,0.1-1.4,4.8-2.4,5.8
			c-1.1,1-2.4,6.1-2.8,7.6s-1,6-1.5,7.4c-0.6,1.4-4.1,5.1-5.1,6.5s-1.4,6.8-1.7,8.6c-0.3,1.8-1.6,5.2-2,5.9
			c-0.4,0.7-0.7,6.4-1.2,8.5s4.9,5.8,6.9,5.7c2,0,6.8-2.4,8.1-2.7c1.3-0.3,3.6-2.8,4.1-3.4c0.5-0.5,2.4-0.8,2.9-0.7
			c0.6,0.1,5.7-5.4,7.9-6c2.1-0.6,7.6-6.5,8.8-9c1.2-2.5,4.9-6.6,5.8-7.5c1-0.9,3.8-1.9,4.5-2s6.7-3.1,8.8-4.2
			c2-1.1,5.2-4.4,5.5-5.4s-1.6-2.9-2.3-2.7c-0.7,0.2-3-0.7-3.7-1c-0.7-0.4-0.2-4.9-0.7-6.2c-0.5-1.3,1-6,0.9-7.1s-0.5-4-0.7-4.7
			s0.9-3,1.2-3.7c0.2-0.7,0.7,0.9,0.4,1.9c-0.3,1,0.1,6,0.2,7.6s0,6.6-0.2,8.1c-0.1,1.5,4.7,3.5,6.6,3.6s4.4,0,4.7-0.4
			c0.3-0.4,3.3-0.1,4.2-0.3c0.9-0.1,3.1-2.5,3.7-2.7c0.7-0.2,1.4-3.2,1.4-4.3c-0.1-1.1-2.1-3-2.7-3c-0.7,0-0.5-2.6-0.5-3.6
			c0.1-0.9-1.2-2.9-1.1-3.5s1.2-1.1,1.6-1.1s2.4,4.2,2.7,5.9c0.3,1.7,0.2,4.5,0.1,4.9c0,0.5,2.5,2.2,3.3,2c0.8-0.1,1.4,0.4,1.3,1.1
			c0,0,0,0,0.9,0.3c3.1,1.2,3.1,1.2,3.1,1.2c0.5,2.2,0.2,3.7,0,4c-0.2,0.2,0,2,0.5,2.4c0.5,0.5-0.2,2.6-0.3,3.1
			c-0.1,0.6,0,4.3-0.4,5.7c-0.3,1.4-0.3,4.5-0.3,5.3s-0.8,2.8-1.1,3.3c-0.3,0.5,0.2,2,0.9,2.4c0.7,0.3,4.4-3.1,5.5-4.4
			c1.2-1.4,3-2,3.3-1.9c0.3,0.2,1-0.5,1.2-0.9c0.2-0.3,1.8,0.7,2.2,0.3c0.4-0.3,2.4-2.8,3.3-2.9c0.8-0.1,3.8-0.3,4.6-0.1
			c0.3,0,0.6,0.4,0.8,0.8c1-1.6,2-3.2,2.9-4.8C229.7,222.1,235,193.5,232,166.1z"/>
		<path class="st20" d="M195,265.4c0.5-0.3,1.1-2.8,0.9-3.5c-0.2-0.8-1.1-0.8-2.1-0.2C193,262.3,194.6,265.7,195,265.4z"/>
		<path class="st20" d="M134.7,282.5c-0.4,1,1,2.8,1.7,2.9c0.6,0.1,3.7-1.8,4.4-2.4c0.7-0.7,1.8-2.3,2.1-2.7c0.2-0.4,1-1.2,1.3-1.2
			s1.1-0.7,2-1.6c0.8-1,2.2-6.6,2.7-7.4c0.5-0.9-1.2-0.1-2,0.6s-4.2,1.1-5.1,1.5s-3,2.6-3,3.1s-1.4,2-1.9,2.3
			C136.1,277.9,135.1,281.5,134.7,282.5z"/>
		<path class="st20" d="M28.3,266.4c0.5,0.3,1.1,0.6,1.6,0.9C31.2,265.7,29.1,264.9,28.3,266.4z"/>
		<path class="st20" d="M145.1,88.8c-1.2-0.7-8.6-3-10.8-3.1c-2.2,0-4.9,1.6-4.4,2s-1.8,0.9-2.8,0.6c-1.1-0.2-3.4-1.3-4.2-1.1
			c-0.8,0.2,0.1,1.2,0.1,1.6c0,0.5,1,0.1,1.3,0.8c0.4,0.6,2.2,1.9,2.6,2.3c0.4,0.5-2-0.3-3-0.8s-1.9,1.6-1.3,2.3
			c0.7,0.7,2.6,2.2,3,2s2.3,1.8,3.3,2.5c0.9,0.7,0.3,3.7,0.3,4.4s-1,2.7-1.4,3.2c-0.4,0.5,0.9,2.6,1.4,2.5c0.5-0.2-0.3,1-1,0.5
			c-0.7-0.5-1.5,1.9-0.7,2.8c0.8,0.8-0.6,1.8-1.4,1.9c-0.7,0.1-1.2,1.6-2,1.7c-0.8,0.1-0.8,5.9-2.1,8.1c-1.3,2.2-0.9,4.8-0.4,5.1
			c0.5,0.3,2.1,1.8,2.1,2.4s1.3,0.3,1.9,0.1c0.6-0.2,1.9-0.8,3-1.4c1.1-0.6,4.9-4.4,5.3-4.7c0.4-0.4,2.4,1.1,3,1.1s2.6-0.3,3.2-0.4
			s4.3,0.3,5.4,0.2c1.1-0.1,3.9-1.9,4.9-2.1c0.9-0.2-0.1-0.6-0.6-1.5c-0.5-1,0.2-1.4,0.6-1.5s2.4,1.9,3.1,2.7
			c0.6,0.8,2.9,0.6,2.5-0.2c-0.3-0.8,0-0.6,0.2-0.2c0.2,0.3,1.4-1.1,1.3-1.6s3.7-0.9,4.3-3.1c0.6-2.2,3-3.4,3.7-3
			c0.8,0.4,1.7-1.8,1-2.6c-0.8-0.7,0.2-0.4,0.7-0.5s2-1.8,2-2.3s1.8,0,2.3-0.3s2.8-0.1,3.5,0.1c0.7,0.2,2-1.3,1.3-1.6
			s-2.3-1.7-2.4-2.2c-0.2-0.5-2.6-2.3-3.6-2.4c-0.9-0.1,0.8-2,2-1.6s1.1-1.6,0-2.3c-1.1-0.6-3.7-2.6-4.4-2.9
			c-0.7-0.2-1.7-1.6-2.1-1.9c-0.4-0.3-4.4-1.2-5.9-2.2s-5.5-3-6.5-3.3s-2.5,1-2.7,1.7C150.1,91.7,146.3,89.5,145.1,88.8z"/>
		<path class="st20" d="M183.7,127.2c0.6,0.4,0.6,2.3,1.2,2.7c0.6,0.4,3.1-1.4,3.8-2.2c0.8-0.8,2.4,1.1,3.2,2
			c0.8,0.8,3.2-2.6,2.4-3.7c-0.7-1.1-2.1-1.6-2.4-2.2c-0.2-0.6-0.7-1.5-1.1-1.8s0.3-2.7-0.3-3.5c-0.7-0.8-2.9-0.8-3-0.2
			c-0.1,0.7-1-1.5-2.5-1.5c-1.4-0.1-2.9,1.7-2.5,2.3c0.4,0.6-0.2,2.3-0.3,2.6c-0.2,0.3,2.1,1.3,2.9,1.2c0.8-0.1-0.4,1.9-1.3,2.1
			C183,125.2,183.1,126.7,183.7,127.2z"/>
		<path class="st20" d="M202.6,125.5c0.6-0.1-3.8-4-5.7-5.2c-1.9-1.2-3.6-1.8-3.8-1.4c-0.2,0.4,3.1,4.6,4.7,5.9
			C199.3,126,202,125.7,202.6,125.5z"/>
		<path class="st20" d="M141.6,152.6c-0.3-0.4-1.5,1.1-1.8,1.8c-0.3,0.7,1.3,1.5,2,1.8s1.5,0,1.8-0.5c0.3-0.6,0.7-3.5,0.4-3.8
			C143.7,151.6,142,153,141.6,152.6z"/>
		<path class="st20" d="M157.5,136.2c0-0.8-2.7-2.2-3.3-2.6c-0.6-0.4-2.2-2.2-2.4-2.8c-0.1-0.6-1.5,1.2-2.3,1.2
			c-0.7-0.1-0.1,0.8,0.3,0.7c0.4-0.1-0.6,1-1.1,1.3s1.3,1.7,1.2,2.5c-0.2,0.8,0.4,1.7,1.3,2s2.9,0.4,3.5,0.7
			C155.3,139.5,157.5,137,157.5,136.2z"/>
		<path class="st20" d="M215.6,149.2c-0.9,0.2-4.2,3.9-4.7,4.2c-0.6,0.3,0.2,3,0.6,3.9c0.5,0.9,1.7,1.3,2,1.3
			c0.3,0.1,1.3-3.3,1.5-4.5c0.2-1.3,4.6-1.2,6-1.6s5.8,0.5,6.8-0.2s0.7-1.8,0.3-2.1c-0.4-0.2-1.1,0-1.3,0.1c-0.2,0.1-5-1.3-6.7-1.4
			C218.5,148.9,216.5,149,215.6,149.2z"/>
		<path class="st20" d="M222.7,139c0.6,2.2,2.5,0.6,3.9,1.7c0.1-0.1,0.1-0.2,0.1-0.3c-0.2-0.8-0.5-1.5-0.7-2.3
			C225,137.5,223.4,137.7,222.7,139z"/>
		<path class="st20" d="M91.6,103.4c-0.6,0.1-1.4,2.2-0.6,2.7s3.7-1.7,4.3-0.6c0.6,1.1,1.1,1.7,1.1,1.3s-2-3.2-2.3-3.6
			C93.9,102.9,92.2,103.2,91.6,103.4z"/>
		<path class="st20" d="M64.6,173.9c-0.2,0.3,1.5,1.2,2.1,0.9c0.6-0.4,0.7-0.9,0.2-1.1C66.4,173.4,64.8,173.6,64.6,173.9z"/>
		<path class="st20" d="M58.6,166.8c0.9,0.3-0.2,1.4-0.3,2c-0.1,0.6,1.7,2.1,1.9,2.6c0.2,0.5,1.7,0.2,2.5,0.7
			c0.7,0.5,1.3-2.8-0.1-3.5c-1.4-0.7-1.7-2.5-1.9-2.9c-0.2-0.3-1.2-2.1-1.5-2.7c-0.2-0.6-3.4-2.8-4.5-3.4s-3-0.2-3.4,0.1
			c-0.4,0.3,1.4,1.7,2.2,1.7c0.7,0,3,2.2,3.2,3.1C56.8,165.5,57.7,166.5,58.6,166.8z"/>
		<path class="st20" d="M53.4,167.6c-0.2,0.3,1.6,1.1,2.1,1.4c0.4,0.2,0.6,0,0.3-0.6C55.6,167.7,53.6,167.3,53.4,167.6z"/>
		<path class="st20" d="M59.7,159.4c-0.3-0.4-1.1,0.1-1.3,0.4c-0.2,0.3-0.1,0.7,0.2,0.9C58.9,160.9,60,159.9,59.7,159.4z"/>
		<path class="st20" d="M63.2,161.8c0-0.4-0.6-1.1-0.8-1.2c-0.2-0.1-0.7,0.3-1.1,1.1C60.9,162.3,63.1,162.2,63.2,161.8z"/>
		<path class="st20" d="M63.4,167.2c0.9,0.1,1.5-0.7,1-0.9c-0.4-0.2-0.5-1.9-0.8-2.3s-1.3,0.3-1.5,0.7c-0.2,0.4-0.1,0.8,0.2,0.9
			C62.7,165.7,62.6,167.2,63.4,167.2z"/>
	</g>
	<rect x="712.4" y="405.5" class="st22" width="148.4" height="19.1"/>
	<rect x="516.5" y="33.7" class="st23" width="543" height="337.4"/>
	<path class="st3" d="M1181,427.3v-22.5H854.3H850c-3.1,10.7-12.9,10.5-24.7,10.5h-74.8c-11.8,0-21.6,0.2-24.7-10.5h-4.3H394.8v22.5
		c0,0,27.2,20.3,47.1,20.3H692h191.6h250.1C1153.8,447.5,1181,427.3,1181,427.3z"/>
	<path class="st24" d="M1181,427.3v-22.5H854.3H850c-3.1,10.7-12.9,10.5-24.7,10.5h-74.8c-11.8,0-21.6,0.2-24.7-10.5h-4.3H394.8
		v22.5c0,0,27.2,20.3,47.1,20.3H692h191.6h250.1C1153.8,447.5,1181,427.3,1181,427.3z"/>
	<path class="st25" d="M765.3,16.9H531.2v355.8h261.1V44.4C792.3,29,780.4,16.9,765.3,16.9z"/>
	<path class="st4" d="M820,16.9h233.4v355.8H792.3V44.4C792.3,29,804.9,16.9,820,16.9z"/>
	<path class="st23" d="M778.4,19.6v353.1h13.9V44.4C792.3,33.6,787.7,24.2,778.4,19.6z"/>
	<g>
		<line class="st26" x1="565.9" y1="56.1" x2="697.6" y2="56.1"/>
		<line class="st27" x1="565.9" y1="65.4" x2="667.5" y2="65.4"/>
		<line class="st27" x1="577.4" y1="97.7" x2="759.9" y2="97.7"/>
		<line class="st27" x1="565.9" y1="111.6" x2="759.9" y2="111.6"/>
		<line class="st27" x1="565.9" y1="122" x2="759.9" y2="122"/>
		<line class="st27" x1="565.9" y1="132.4" x2="651.4" y2="132.4"/>
		<line class="st27" x1="630.6" y1="155.5" x2="723" y2="155.5"/>
		<line class="st27" x1="630.6" y1="166.4" x2="759.9" y2="166.4"/>
		<line class="st27" x1="630.6" y1="177.4" x2="759.9" y2="177.4"/>
		<line class="st27" x1="630.6" y1="188.4" x2="759.9" y2="188.4"/>
		<line class="st27" x1="630.6" y1="199.4" x2="759.9" y2="199.4"/>
		<line class="st27" x1="630.6" y1="210.3" x2="759.9" y2="210.3"/>
		<line class="st27" x1="630.6" y1="221.3" x2="759.9" y2="221.3"/>
		<line class="st27" x1="630.6" y1="232.3" x2="759.9" y2="232.3"/>
		<line class="st27" x1="630.6" y1="243.3" x2="736.8" y2="243.3"/>
		<line class="st27" x1="630.6" y1="268.7" x2="759.9" y2="268.7"/>
		<line class="st27" x1="630.6" y1="279.1" x2="759.9" y2="279.1"/>
		<line class="st27" x1="630.6" y1="289.5" x2="759.9" y2="289.5"/>
		<line class="st27" x1="630.6" y1="299.9" x2="759.9" y2="299.9"/>
		<line class="st27" x1="630.6" y1="310.3" x2="759.9" y2="310.3"/>
		<line class="st27" x1="630.6" y1="320.7" x2="759.9" y2="320.7"/>
		<line class="st27" x1="630.6" y1="331.1" x2="709.1" y2="331.1"/>
		<line class="st27" x1="568.2" y1="268.7" x2="616.7" y2="268.7"/>
		<line class="st27" x1="568.2" y1="277.9" x2="589" y2="277.9"/>
	</g>
	<g>
		<line class="st26" x1="822.3" y1="199.4" x2="926.3" y2="199.4"/>
		<line class="st27" x1="822.3" y1="210.9" x2="972.5" y2="210.9"/>
		<line class="st27" x1="822.3" y1="220.2" x2="889.3" y2="220.2"/>
		<line class="st26" x1="887" y1="245.6" x2="970.2" y2="245.6"/>
		<line class="st28" x1="887" y1="254.8" x2="1016.4" y2="254.8"/>
		<line class="st27" x1="887" y1="268.7" x2="1016.4" y2="268.7"/>
		<line class="st27" x1="887" y1="277.9" x2="986.4" y2="277.9"/>
		<line class="st26" x1="887" y1="298.7" x2="970.2" y2="298.7"/>
		<line class="st27" x1="887" y1="310.3" x2="1016.4" y2="310.3"/>
		<line class="st27" x1="887" y1="319.5" x2="1016.4" y2="319.5"/>
		<line class="st27" x1="887" y1="331.1" x2="930.9" y2="331.1"/>
		<rect x="822.3" y="245.6" class="st11" width="53.1" height="39.3"/>
		<rect x="822.3" y="298.7" class="st11" width="53.1" height="41.6"/>
	</g>
	<g>
		<rect x="563.6" y="155.5" class="st11" width="55.4" height="94.7"/>
	</g>
	<g>
		<rect x="822.9" y="55" class="st10" width="198.5" height="101.4"/>
		<polygon class="st4" points="932,105.7 919.6,112.9 907.1,120.1 907.1,105.7 907.1,91.4 919.6,98.5 		"/>
		<line class="st29" x1="846.1" y1="171.5" x2="859.8" y2="171.5"/>
		<line class="st30" x1="1006.7" y1="171.5" x2="873.2" y2="171.5"/>
		<line class="st30" x1="1011.7" y1="171.5" x2="1020.8" y2="171.5"/>
		<line class="st30" x1="824.4" y1="165.7" x2="824.4" y2="177.4"/>
		<line class="st30" x1="834.1" y1="165.7" x2="834.1" y2="177.4"/>
		<circle class="st30" cx="868.2" cy="171.5" r="6.9"/>
	</g>
	<g>
		<g>
			<path class="st3" d="M179.4,445.4h5.1c1.7,0,3-1.5,3-3.4v-59.9c0-1.9-1.4-3.4-3-3.4h-5.1v-6.8h387.4c5,0,9.1,4.6,9.1,10.2V442
				c0,5.6-4.1,10.2-9.1,10.2H179.4V445.4z"/>
			<path class="st31" d="M179.4,445.4h5.1c1.7,0,3-1.5,3-3.4v-59.9c0-1.9-1.4-3.4-3-3.4h-5.1v-6.8h232.5v80.2H179.4V445.4z"/>
			<path class="st4" d="M187.5,442v-59.9c0-1.9-1.4-3.4-3-3.4h382.3c1.7,0,3,1.5,3,3.4V442c0,1.9-1.4,3.4-3,3.4H184.5
				C186.2,445.4,187.5,443.9,187.5,442z"/>
			<path class="st23" d="M187.5,442v-59.9c0-1.9-1.4-3.4-3-3.4H418c1.7,0,3,1.5,3,3.4V442c0,1.9-1.4,3.4-3,3.4H184.5
				C186.2,445.4,187.5,443.9,187.5,442z"/>
			<g class="st9">
				<rect x="187.4" y="378.6" class="st3" width="380.1" height="2.4"/>
				<rect x="187.4" y="438.7" class="st3" width="380.1" height="2.4"/>
				<rect x="187.4" y="384.4" class="st3" width="380.1" height="0.7"/>
				<rect x="187.4" y="401.2" class="st3" width="380.1" height="0.7"/>
				<rect x="187.4" y="418" class="st3" width="380.1" height="0.7"/>
				<rect x="187.4" y="425.6" class="st3" width="380.1" height="0.7"/>
				<rect x="187.4" y="388" class="st3" width="380.1" height="1.4"/>
				<rect x="187.4" y="395.3" class="st3" width="380.1" height="2.4"/>
				<rect x="187.4" y="404.8" class="st3" width="380.1" height="1.4"/>
				<rect x="187.4" y="430.6" class="st3" width="380.1" height="1.5"/>
				<rect x="187.4" y="413.1" class="st3" width="380.1" height="1.4"/>
			</g>
		</g>
		<g>
			<path class="st23" d="M224.5,297.7c1.6,9.5,2.5,19.5,2.5,30c0,11.8-1.1,23.1-3.2,33.5h249.3v-63.5H224.5z"/>
			<path class="st32" d="M224.5,297.7c0.4,2.2,0.7,4.4,1,6.6h224.8v-6.6H224.5z"/>
			<path class="st10" d="M547.5,287.8h-202c1.6,0,2.8,1.3,2.8,2.8v77.8c0,1.6-1.3,2.8-2.8,2.8h202c1.6,0,2.8-1.3,2.8-2.8v-77.8
				C550.4,289,549.1,287.8,547.5,287.8z"/>
			<path class="st33" d="M550.4,290.6c0-1.6-1.3-2.8-2.8-2.8h-64.5H345.6H221.9c-1.6,0-2.8,1.3-2.8,2.8v7.1h120v63.5h-120v7.1
				c0,1.6,1.3,2.8,2.8,2.8h261.2c1.6,0,2.8-1.3,2.8-2.8V300h64.5V290.6z"/>
		</g>
		<g>
			<g>
				<path class="st3" d="M415.1,257.5v-4.3c50.8,0,100-7,138.5-19.6l1.3,4.1C516,250.5,466.4,257.5,415.1,257.5z"/>
			</g>
			<rect x="166.3" y="253.3" class="st34" width="251.8" height="4.7"/>
			<rect x="166.3" y="258" class="st34" width="251.8" height="30.4"/>
			<path class="st3" d="M404,257.6H274.2c31.6-4.3,60.5-6.8,102.2-19.7h178.5C511.2,250.5,458.4,257.5,404,257.6z"/>
			<path class="st34" d="M404,257.2H274.2c31.6-2.2,60.5-3.5,102.2-10.1h178.5C511.2,253.6,458.4,257.2,404,257.2z"/>
			<rect x="400.3" y="284" class="st7" width="162.8" height="4.4"/>
			<g>
				<rect x="379.9" y="233.6" class="st7" width="175" height="4.3"/>
			</g>
			<g>
				<path class="st34" d="M241.6,257.5v-4.3c50.8,0,100-7,138.5-19.6l1.3,4.1C342.5,250.5,292.9,257.5,241.6,257.5z"/>
			</g>
			<rect x="396.6" y="257.8" class="st4" width="158.4" height="26.1"/>
			<rect x="171.8" y="257.8" class="st15" width="225.2" height="26.1"/>
		</g>
	</g>
</g>
</svg>
